# xmcd CD database file
#
# Track frame offsets:
#	150
#	12370
#	24732
#	37602
#	48985
#	61050
#	73232
#	84907
#	97382
#	111054
#	123830
#	135352
#	146127
#	158517
#	170110
#	182747
#	194932
#	208270
#	222132
#	233915
#
# Disc length: 3292 seconds
#
# Revision: 3
# Processed by: cddbd v1.5.2PL0 Copyright (c) Steve Scherf et al.
# Submitted via: CDex 1.51
#
DISCID=210cda14
DTITLE=Various Artist - Living The Blues - Jump Blues and Boogie
DYEAR=1999
DGENRE=Blues
TTITLE0=Louis Jordan - Caldonia
TTITLE1=Roy Brown - Rockin' At Midnight
TTITLE2=Roy Milton - Milton's Boogie
TTITLE3=Ruth Brown - Wild Wild Young Men
TTITLE4=Joe Turner - Honey Hush
TTITLE5=Pee Wee Crayton - Texas Hop
TTITLE6=Jimmy Preston - Rock The Joint
TTITLE7=Amos Milburn - Roomin' House Boogie
TTITLE8=Joe Liggins - Rag Mop
TTITLE9="Big" Jay McNeely - The Deacon's Hop
TTITLE10=Wynonie Harris - All She Wants To Do Is Rock
TTITLE11=Treniers, The - Go! Go! Go!
TTITLE12=Tiny Bradshaw - I'm Going To Have Myself A Ball
TTITLE13=Mabel Scott - Elevator Boogie
TTITLE14=Floyd Dixon - Hey Bartender
TTITLE15=Helen Humes - Be-Baba-Leba
TTITLE16=Hal Singer - Cornbread
TTITLE17=Louis Jordan - Ain't Nobody Here But Us Chickens
TTITLE18=Johnny Otis - Cupid Boogie
TTITLE19=Nellie Lutcher and Her Rhythm - Fine Brown Frame
EXTD=YEAR: 1999
EXTT0=
EXTT1=
EXTT2=
EXTT3=
EXTT4=
EXTT5=
EXTT6=
EXTT7=
EXTT8=
EXTT9=
EXTT10=
EXTT11=
EXTT12=
EXTT13=
EXTT14=
EXTT15=
EXTT16=
EXTT17=
EXTT18=
EXTT19=
PLAYORDER=
